{
    "asset" : {
        "generator" : "Khronos glTF Blender I/O v1.4.40",
        "version" : "2.0"
    },
    "scene" : 0,
    "scenes" : [
        {
            "name" : "Scene",
            "nodes" : [
                0,
                1,
                2,
                3,
                4,
                5,
                6,
                7,
                8
            ]
        }
    ],
    "nodes" : [
        {
            "name" : "Light",
            "rotation" : [
                0.16907575726509094,
                0.7558803558349609,
                -0.27217137813568115,
                0.570947527885437
            ],
            "translation" : [
                4.076245307922363,
                5.903861999511719,
                -1.0054539442062378
            ]
        },
        {
            "name" : "Camera",
            "rotation" : [
                0.483536034822464,
                0.33687159419059753,
                -0.20870360732078552,
                0.7804827094078064
            ],
            "translation" : [
                7.358891487121582,
                4.958309173583984,
                6.925790786743164
            ]
        },
        {
            "mesh" : 0,
            "name" : "stalkf",
            "rotation" : [
                0,
                0,
                -0.7071068286895752,
                0.7071068286895752
            ],
            "translation" : [
                0,
                0.75,
                0
            ]
        },
        {
            "mesh" : 1,
            "name" : "stalkb",
            "rotation" : [
                -0.5,
                0.5,
                -0.5,
                0.4999999701976776
            ],
            "translation" : [
                0,
                0.75,
                0
            ]
        },
        {
            "mesh" : 2,
            "name" : "leaf1",
            "rotation" : [
                0,
                0,
                -0.13917312026023865,
                0.9902681708335876
            ],
            "translation" : [
                4.601478576660156e-05,
                0.3734307289123535,
                -0.002421557903289795
            ]
        },
        {
            "mesh" : 3,
            "name" : "leaf2",
            "rotation" : [
                0.13917312026023865,
                0,
                0,
                0.9902681708335876
            ],
            "translation" : [
                -0.009880781173706055,
                0.7529631853103638,
                3.159046173095703e-05
            ]
        },
        {
            "mesh" : 4,
            "name" : "leaf3",
            "rotation" : [
                0,
                0,
                -0.13917312026023865,
                0.9902681708335876
            ],
            "translation" : [
                -0.002811431884765625,
                1.1249059438705444,
                8.106231689453125e-06
            ]
        },
        {
            "mesh" : 5,
            "name" : "face",
            "rotation" : [
                0,
                0,
                -0.5,
                0.8660253882408142
            ],
            "translation" : [
                -3.230571746826172e-05,
                1.4935816526412964,
                -0.0017551183700561523
            ]
        },
        {
            "mesh" : 6,
            "name" : "face.001",
            "rotation" : [
                0,
                0,
                -0.5,
                0.8660253882408142
            ],
            "translation" : [
                -0.006861873436719179,
                1.4935816526412964,
                -0.0017551183700561523
            ]
        }
    ],
    "materials" : [
        {
            "alphaCutoff" : 0.5,
            "alphaMode" : "MASK",
            "doubleSided" : true,
            "name" : "Material.001",
            "pbrMetallicRoughness" : {
                "baseColorTexture" : {
                    "index" : 0,
                    "texCoord" : 0
                },
                "metallicFactor" : 0
            }
        },
        {
            "alphaCutoff" : 0.5,
            "alphaMode" : "MASK",
            "doubleSided" : true,
            "name" : "stalk",
            "pbrMetallicRoughness" : {
                "baseColorTexture" : {
                    "index" : 1,
                    "texCoord" : 0
                },
                "metallicFactor" : 0
            }
        },
        {
            "alphaCutoff" : 0.5,
            "alphaMode" : "MASK",
            "doubleSided" : true,
            "name" : "Material.006",
            "pbrMetallicRoughness" : {
                "baseColorTexture" : {
                    "index" : 2,
                    "texCoord" : 0
                },
                "metallicFactor" : 0,
                "roughnessFactor" : 0.5
            }
        },
        {
            "alphaCutoff" : 0.5,
            "alphaMode" : "MASK",
            "doubleSided" : true,
            "name" : "Material.005",
            "pbrMetallicRoughness" : {
                "baseColorTexture" : {
                    "index" : 3,
                    "texCoord" : 0
                },
                "metallicFactor" : 0,
                "roughnessFactor" : 0.5
            }
        },
        {
            "alphaCutoff" : 0.5,
            "alphaMode" : "MASK",
            "doubleSided" : true,
            "name" : "Material.004",
            "pbrMetallicRoughness" : {
                "baseColorTexture" : {
                    "index" : 4,
                    "texCoord" : 0
                },
                "metallicFactor" : 0,
                "roughnessFactor" : 0.5
            }
        },
        {
            "alphaCutoff" : 0.5,
            "alphaMode" : "MASK",
            "doubleSided" : true,
            "name" : "Material.002",
            "pbrMetallicRoughness" : {
                "baseColorTexture" : {
                    "index" : 5,
                    "texCoord" : 0
                },
                "metallicFactor" : 0,
                "roughnessFactor" : 0.3340908885002136
            }
        },
        {
            "alphaCutoff" : 0.5,
            "alphaMode" : "MASK",
            "doubleSided" : true,
            "name" : "Material.003",
            "pbrMetallicRoughness" : {
                "baseColorTexture" : {
                    "index" : 6,
                    "texCoord" : 0
                },
                "metallicFactor" : 0,
                "roughnessFactor" : 0.5
            }
        }
    ],
    "meshes" : [
        {
            "name" : "Plane",
            "primitives" : [
                {
                    "attributes" : {
                        "POSITION" : 0,
                        "NORMAL" : 1,
                        "TEXCOORD_0" : 2
                    },
                    "indices" : 3,
                    "material" : 0
                }
            ]
        },
        {
            "name" : "Plane.001",
            "primitives" : [
                {
                    "attributes" : {
                        "POSITION" : 4,
                        "NORMAL" : 5,
                        "TEXCOORD_0" : 6
                    },
                    "indices" : 7,
                    "material" : 1
                }
            ]
        },
        {
            "name" : "Plane.002",
            "primitives" : [
                {
                    "attributes" : {
                        "POSITION" : 8,
                        "NORMAL" : 9,
                        "TEXCOORD_0" : 10
                    },
                    "indices" : 7,
                    "material" : 2
                }
            ]
        },
        {
            "name" : "Plane.003",
            "primitives" : [
                {
                    "attributes" : {
                        "POSITION" : 11,
                        "NORMAL" : 12,
                        "TEXCOORD_0" : 13
                    },
                    "indices" : 7,
                    "material" : 3
                }
            ]
        },
        {
            "name" : "Plane.004",
            "primitives" : [
                {
                    "attributes" : {
                        "POSITION" : 14,
                        "NORMAL" : 15,
                        "TEXCOORD_0" : 16
                    },
                    "indices" : 7,
                    "material" : 4
                }
            ]
        },
        {
            "name" : "Plane.005",
            "primitives" : [
                {
                    "attributes" : {
                        "POSITION" : 17,
                        "NORMAL" : 18,
                        "TEXCOORD_0" : 19
                    },
                    "indices" : 7,
                    "material" : 5
                }
            ]
        },
        {
            "name" : "Plane.006",
            "primitives" : [
                {
                    "attributes" : {
                        "POSITION" : 20,
                        "NORMAL" : 21,
                        "TEXCOORD_0" : 22
                    },
                    "indices" : 7,
                    "material" : 6
                }
            ]
        }
    ],
    "textures" : [
        {
            "sampler" : 0,
            "source" : 0
        },
        {
            "sampler" : 0,
            "source" : 1
        },
        {
            "sampler" : 0,
            "source" : 2
        },
        {
            "sampler" : 0,
            "source" : 3
        },
        {
            "sampler" : 0,
            "source" : 4
        },
        {
            "sampler" : 0,
            "source" : 5
        },
        {
            "sampler" : 0,
            "source" : 6
        }
    ],
    "images" : [
        {
            "bufferView" : 4,
            "mimeType" : "image/png",
            "name" : "stalk"
        },
        {
            "bufferView" : 9,
            "mimeType" : "image/png",
            "name" : "stalk"
        },
        {
            "bufferView" : 13,
            "mimeType" : "image/png",
            "name" : "leafdr"
        },
        {
            "bufferView" : 17,
            "mimeType" : "image/png",
            "name" : "leaful"
        },
        {
            "bufferView" : 21,
            "mimeType" : "image/png",
            "name" : "leafdl"
        },
        {
            "bufferView" : 25,
            "mimeType" : "image/png",
            "name" : "redface2"
        },
        {
            "bufferView" : 29,
            "mimeType" : "image/png",
            "name" : "sunback"
        }
    ],
    "accessors" : [
        {
            "bufferView" : 0,
            "componentType" : 5126,
            "count" : 25,
            "max" : [
                0.75,
                0,
                0.13362884521484375
            ],
            "min" : [
                -0.75,
                0,
                -0.13362884521484375
            ],
            "type" : "VEC3"
        },
        {
            "bufferView" : 1,
            "componentType" : 5126,
            "count" : 25,
            "type" : "VEC3"
        },
        {
            "bufferView" : 2,
            "componentType" : 5126,
            "count" : 25,
            "type" : "VEC2"
        },
        {
            "bufferView" : 3,
            "componentType" : 5123,
            "count" : 96,
            "type" : "SCALAR"
        },
        {
            "bufferView" : 5,
            "componentType" : 5126,
            "count" : 4,
            "max" : [
                0.75,
                0,
                0.13362884521484375
            ],
            "min" : [
                -0.75,
                0,
                -0.13362884521484375
            ],
            "type" : "VEC3"
        },
        {
            "bufferView" : 6,
            "componentType" : 5126,
            "count" : 4,
            "type" : "VEC3"
        },
        {
            "bufferView" : 7,
            "componentType" : 5126,
            "count" : 4,
            "type" : "VEC2"
        },
        {
            "bufferView" : 8,
            "componentType" : 5123,
            "count" : 6,
            "type" : "SCALAR"
        },
        {
            "bufferView" : 10,
            "componentType" : 5126,
            "count" : 4,
            "max" : [
                0.25,
                0,
                0.25
            ],
            "min" : [
                -0.25,
                0,
                -0.25
            ],
            "type" : "VEC3"
        },
        {
            "bufferView" : 11,
            "componentType" : 5126,
            "count" : 4,
            "type" : "VEC3"
        },
        {
            "bufferView" : 12,
            "componentType" : 5126,
            "count" : 4,
            "type" : "VEC2"
        },
        {
            "bufferView" : 14,
            "componentType" : 5126,
            "count" : 4,
            "max" : [
                0.25,
                0,
                0.25
            ],
            "min" : [
                -0.25,
                0,
                -0.25
            ],
            "type" : "VEC3"
        },
        {
            "bufferView" : 15,
            "componentType" : 5126,
            "count" : 4,
            "type" : "VEC3"
        },
        {
            "bufferView" : 16,
            "componentType" : 5126,
            "count" : 4,
            "type" : "VEC2"
        },
        {
            "bufferView" : 18,
            "componentType" : 5126,
            "count" : 4,
            "max" : [
                0.25,
                0,
                0.25
            ],
            "min" : [
                -0.25,
                0,
                -0.25
            ],
            "type" : "VEC3"
        },
        {
            "bufferView" : 19,
            "componentType" : 5126,
            "count" : 4,
            "type" : "VEC3"
        },
        {
            "bufferView" : 20,
            "componentType" : 5126,
            "count" : 4,
            "type" : "VEC2"
        },
        {
            "bufferView" : 22,
            "componentType" : 5126,
            "count" : 4,
            "max" : [
                0.25,
                0,
                0.25
            ],
            "min" : [
                -0.25,
                0,
                -0.25
            ],
            "type" : "VEC3"
        },
        {
            "bufferView" : 23,
            "componentType" : 5126,
            "count" : 4,
            "type" : "VEC3"
        },
        {
            "bufferView" : 24,
            "componentType" : 5126,
            "count" : 4,
            "type" : "VEC2"
        },
        {
            "bufferView" : 26,
            "componentType" : 5126,
            "count" : 4,
            "max" : [
                0.25,
                0,
                0.25
            ],
            "min" : [
                -0.25,
                0,
                -0.25
            ],
            "type" : "VEC3"
        },
        {
            "bufferView" : 27,
            "componentType" : 5126,
            "count" : 4,
            "type" : "VEC3"
        },
        {
            "bufferView" : 28,
            "componentType" : 5126,
            "count" : 4,
            "type" : "VEC2"
        }
    ],
    "bufferViews" : [
        {
            "buffer" : 0,
            "byteLength" : 300,
            "byteOffset" : 0
        },
        {
            "buffer" : 0,
            "byteLength" : 300,
            "byteOffset" : 300
        },
        {
            "buffer" : 0,
            "byteLength" : 200,
            "byteOffset" : 600
        },
        {
            "buffer" : 0,
            "byteLength" : 192,
            "byteOffset" : 800
        },
        {
            "buffer" : 0,
            "byteLength" : 13699,
            "byteOffset" : 992
        },
        {
            "buffer" : 0,
            "byteLength" : 48,
            "byteOffset" : 14692
        },
        {
            "buffer" : 0,
            "byteLength" : 48,
            "byteOffset" : 14740
        },
        {
            "buffer" : 0,
            "byteLength" : 32,
            "byteOffset" : 14788
        },
        {
            "buffer" : 0,
            "byteLength" : 12,
            "byteOffset" : 14820
        },
        {
            "buffer" : 0,
            "byteLength" : 26880,
            "byteOffset" : 14832
        },
        {
            "buffer" : 0,
            "byteLength" : 48,
            "byteOffset" : 41712
        },
        {
            "buffer" : 0,
            "byteLength" : 48,
            "byteOffset" : 41760
        },
        {
            "buffer" : 0,
            "byteLength" : 32,
            "byteOffset" : 41808
        },
        {
            "buffer" : 0,
            "byteLength" : 2551,
            "byteOffset" : 41840
        },
        {
            "buffer" : 0,
            "byteLength" : 48,
            "byteOffset" : 44392
        },
        {
            "buffer" : 0,
            "byteLength" : 48,
            "byteOffset" : 44440
        },
        {
            "buffer" : 0,
            "byteLength" : 32,
            "byteOffset" : 44488
        },
        {
            "buffer" : 0,
            "byteLength" : 2622,
            "byteOffset" : 44520
        },
        {
            "buffer" : 0,
            "byteLength" : 48,
            "byteOffset" : 47144
        },
        {
            "buffer" : 0,
            "byteLength" : 48,
            "byteOffset" : 47192
        },
        {
            "buffer" : 0,
            "byteLength" : 32,
            "byteOffset" : 47240
        },
        {
            "buffer" : 0,
            "byteLength" : 2421,
            "byteOffset" : 47272
        },
        {
            "buffer" : 0,
            "byteLength" : 48,
            "byteOffset" : 49696
        },
        {
            "buffer" : 0,
            "byteLength" : 48,
            "byteOffset" : 49744
        },
        {
            "buffer" : 0,
            "byteLength" : 32,
            "byteOffset" : 49792
        },
        {
            "buffer" : 0,
            "byteLength" : 9243,
            "byteOffset" : 49824
        },
        {
            "buffer" : 0,
            "byteLength" : 48,
            "byteOffset" : 59068
        },
        {
            "buffer" : 0,
            "byteLength" : 48,
            "byteOffset" : 59116
        },
        {
            "buffer" : 0,
            "byteLength" : 32,
            "byteOffset" : 59164
        },
        {
            "buffer" : 0,
            "byteLength" : 3135,
            "byteOffset" : 59196
        }
    ],
    "samplers" : [
        {
            "magFilter" : 9729,
            "minFilter" : 9986
        }
    ],
    "buffers" : [
        {
            "byteLength" : 62332,
            "uri" : "data:application/octet-stream;base64,"
        }
    ]
}
